<svg width="18" height="18" viewBox="0 0 18 18" fill="none" xmlns="http://www.w3.org/2000/svg">
<path d="M9 6.28571V9.36263L10.4286 11.2857" stroke="#6BA229" stroke-linecap="round" stroke-linejoin="round"/>
<path d="M14.6852 3.31479L15.0388 2.96124L15.0388 2.96124L14.6852 3.31479ZM15.8109 4.44046L16.3109 4.44298C16.3095 4.71715 16.0876 4.93908 15.8134 4.94046L15.8109 4.44046ZM13.5507 4.95183C13.2745 4.95322 13.0496 4.73049 13.0482 4.45435C13.0468 4.17821 13.2695 3.95323 13.5457 3.95184L13.5507 4.95183ZM15.3223 2.17524C15.3236 1.8991 15.5486 1.67637 15.8248 1.67776C16.1009 1.67914 16.3236 1.90412 16.3222 2.18026L15.3223 2.17524ZM16.4304 7.89729C16.3929 7.62371 16.5842 7.37153 16.8578 7.33403C17.1314 7.29653 17.3836 7.48791 17.4211 7.7615L16.4304 7.89729ZM3.01809 3.01809C6.34985 -0.313667 11.7317 -0.345821 15.0388 2.96124L14.3317 3.66834C11.4218 0.758493 6.67315 0.777247 3.7252 3.7252L3.01809 3.01809ZM14.9819 14.9819C11.6502 18.3137 6.2683 18.3458 2.96124 15.0388L3.66835 14.3317C6.5782 17.2415 11.3269 17.2228 14.2748 14.2748L14.9819 14.9819ZM2.96124 15.0388C-0.345819 11.7317 -0.313667 6.34985 3.01809 3.01809L3.7252 3.7252C0.777246 6.67315 0.758493 11.4218 3.66835 14.3317L2.96124 15.0388ZM15.0388 2.96124L16.1644 4.08691L15.4573 4.79402L14.3317 3.66834L15.0388 2.96124ZM15.8134 4.94046L13.5507 4.95183L13.5457 3.95184L15.8084 3.94047L15.8134 4.94046ZM15.3109 4.43795L15.3223 2.17524L16.3222 2.18026L16.3109 4.44298L15.3109 4.43795ZM17.4211 7.7615C17.7711 10.315 16.9561 13.0077 14.9819 14.9819L14.2748 14.2748C16.0201 12.5295 16.7394 10.1518 16.4304 7.89729L17.4211 7.7615Z" fill="#91A2AB"/>
</svg>
