<svg width="18" height="18" viewBox="0 0 18 18" fill="none" xmlns="http://www.w3.org/2000/svg">
<path fill-rule="evenodd" clip-rule="evenodd" d="M17.6135 8.3801C17.6135 13.0344 13.8324 16.7604 9.16719 16.7604C7.68686 16.7604 6.29619 16.3818 5.08551 15.7177L0.410156 17.2034L1.93428 12.7068C1.16594 11.4447 0.723323 9.96244 0.723323 8.37988C0.723323 3.75176 4.50368 0 9.16884 0C13.833 0.00104133 17.6135 3.75236 17.6135 8.3801ZM9.16719 1.38021C5.25207 1.38021 2.09207 4.49703 2.09207 8.38191C2.09207 9.92396 2.57004 11.3517 3.42004 12.5119L2.53359 15.1277L5.26111 14.2611C6.38306 14.9967 7.72545 15.4259 9.16719 15.4259C13.0962 15.4259 16.2686 12.2652 16.2686 8.3801C16.2686 4.49703 13.1017 1.38021 9.16719 1.38021ZM13.4329 10.3106C13.3804 10.2262 13.2423 10.1749 13.0358 10.0713C12.8292 9.9677 11.8103 9.47131 11.6217 9.4045C11.4312 9.35627 11.2931 9.30064 11.155 9.50639C11.0181 9.71235 10.6209 10.1749 10.4998 10.3118C10.3794 10.4492 10.2588 10.4662 10.0517 10.3644C9.84466 10.2609 9.17679 10.0445 8.3857 9.34536C7.77044 8.80003 7.35462 8.13682 7.23465 7.92285C7.11303 7.71727 7.22237 7.60639 7.32508 7.50429C7.41771 7.41161 7.53187 7.26401 7.63567 7.16399C7.73942 7.02396 7.77373 6.93934 7.84279 6.80177C7.91064 6.66437 7.89666 6.54484 7.82525 6.44098C7.77373 6.33767 7.36038 5.32812 7.18702 4.91718C7.01471 4.50623 6.84245 4.57403 6.72138 4.57403C6.60081 4.57403 6.46286 4.55737 6.32475 4.55737C6.18669 4.55737 5.96236 4.60834 5.77279 4.8143C5.58321 5.02005 5.04852 5.5166 5.04852 6.52757C5.04852 7.53936 5.7895 8.55225 5.89331 8.65167C5.99761 8.81368 7.3316 10.9307 9.43038 11.7532C11.5358 12.5749 11.5358 12.3003 11.9149 12.2652C12.2946 12.2313 13.1724 11.7688 13.3119 11.2901C13.4845 10.8092 13.4845 10.3962 13.4329 10.3106Z" fill="#91A2AB"/>
</svg>
