<svg width="18" height="18" viewBox="0 0 18 18" fill="none" xmlns="http://www.w3.org/2000/svg">
<path d="M3.40039 6.21171C3.40039 3.33336 5.9076 1 9.00039 1C12.0932 1 14.6004 3.33336 14.6004 6.21171C14.6004 9.0675 12.8131 12.3999 10.0244 13.5916C9.37437 13.8695 8.62641 13.8695 7.97634 13.5916C5.18772 12.3999 3.40039 9.0675 3.40039 6.21171Z" stroke="#91A2AB"/>
<path d="M10.6004 6.6C10.6004 7.48366 9.88405 8.2 9.00039 8.2C8.11674 8.2 7.40039 7.48366 7.40039 6.6C7.40039 5.71634 8.11674 5 9.00039 5C9.88405 5 10.6004 5.71634 10.6004 6.6Z" stroke="#6BA229"/>
<path d="M16.1684 11.8C16.7007 12.282 17 12.8253 17 13.4C17 15.3882 13.4183 17 9 17C4.58172 17 1 15.3882 1 13.4C1 12.8253 1.29929 12.282 1.83157 11.8" stroke="#91A2AB" stroke-linecap="round"/>
</svg>
