<svg width="18" height="18" viewBox="0 0 18 18" fill="none" xmlns="http://www.w3.org/2000/svg">
<path fill-rule="evenodd" clip-rule="evenodd" d="M16.53 9.28631C16.5267 9.28631 16.5228 9.28631 16.5537 9.28631C16.082 9.28084 15.7307 8.92119 15.7585 8.51715C15.776 5.30036 12.8543 2.30487 9.60772 2.19683C9.17006 2.18252 8.82755 1.81583 8.84181 1.37799C8.85691 0.940626 9.22792 0.621822 9.68201 0.611176C13.793 0.748081 17.3735 4.43466 17.3227 8.5023C17.3172 8.93791 16.9628 9.28631 16.53 9.28631ZM9.60694 3.26104C12.4048 3.59079 14.6628 5.99457 14.6406 8.61983C14.6366 9.05521 14.2823 9.40631 13.8478 9.40631C13.8454 9.40631 13.8431 9.40631 13.8406 9.40631C13.4029 9.40234 13.051 9.0442 13.055 8.60552C13.0708 6.76608 11.4407 5.07563 9.45223 4.83683C8.98696 4.78618 8.67609 4.4136 8.72692 3.95615C8.77841 3.52035 9.17475 3.20624 9.60694 3.26104ZM6.69169 7.38504C6.37373 7.59701 6.24608 7.79834 6.48001 8.30885L7.78368 10.1383C8.34983 10.6738 9.12807 11.2752 9.9335 11.6329C10.3934 11.8376 10.4941 11.6875 10.6003 11.5315C11.0499 10.863 11.5993 10.4624 12.2328 10.3417C12.9067 10.2132 13.6417 10.4179 14.4436 10.993L14.6944 11.1425C15.1155 11.4694 15.5508 11.7473 15.967 12.0573L16.1953 12.2318C16.8437 12.6994 17.8643 13.4817 17.3187 14.9942C16.8423 16.3204 15.1853 17.7854 13.5592 17.7854C13.4838 17.7854 13.4077 17.7782 13.3348 17.7584L13.2008 17.728C13.005 17.7071 12.7093 17.6199 12.4206 17.498C6.82011 15.1316 2.85515 11.2193 0.659858 5.86958C0.202404 4.82516 0.185802 3.80625 0.588518 2.92515C1.00868 2.00645 1.89417 1.31838 3.00337 0.934912C3.5164 0.76348 4.02216 0.76763 4.50746 0.942852C5.61515 1.37534 7.80245 4.31075 7.86507 5.44015C7.9269 6.60553 7.0929 7.1167 6.69169 7.38504ZM6.28175 5.52882C6.18581 4.9273 4.51378 2.68875 3.95876 2.43341C3.89295 2.45567 3.8491 2.396 3.7558 2.396C3.67731 2.396 3.59406 2.41188 3.50208 2.44201C2.77112 2.68328 2.28997 3.07926 2.03059 3.5864C1.81573 4.0554 1.85387 4.67587 2.09959 5.25988C4.15389 10.2108 7.83331 13.8773 13.0375 16.0356C13.1913 16.1005 13.384 16.1425 13.5386 16.1766C13.5786 16.2364 13.598 16.1903 13.6249 16.1958C14.4345 16.1498 15.523 15.3 15.8259 14.4563C15.9512 14.1094 15.9655 14.0088 15.2439 13.5025C15.1568 13.4365 15.0687 13.3716 14.9839 13.304C14.6025 13.0027 14.1998 12.7273 13.7978 12.4884L13.5576 12.2574C13.2325 12.0639 12.8346 11.8438 12.5277 11.9019C12.3256 11.9409 12.1194 12.1145 11.9148 12.4194C11.31 13.3174 10.3522 13.5595 9.28898 13.0837C7.48226 11.8949 7.00586 11.1641 6.58799 10.8992L5.13773 9.15693C5.10916 9.11638 5.08455 9.0744 5.0647 9.02922C4.31876 7.38017 5.26447 6.46454 5.84493 6.06435C6.26034 5.76545 6.28969 5.65826 6.28175 5.52882Z" fill="#91A2AB"/>
</svg>
