<svg width="30" height="30" viewBox="0 0 30 30" fill="none" xmlns="http://www.w3.org/2000/svg">
<g id="&#208;&#186;&#208;&#190;&#209;&#128;&#208;&#183;&#208;&#184;&#208;&#189;&#208;&#176;">
<path id="Icon" d="M4.22 3.832L2.22667 6.536C1.83185 7.07157 1.63445 7.33936 1.63903 7.56351C1.64301 7.75857 1.73291 7.9415 1.8839 8.06178C2.05741 8.2 2.38642 8.2 3.04444 8.2H21.9556C22.6136 8.2 22.9426 8.2 23.1161 8.06178C23.2671 7.9415 23.357 7.75857 23.361 7.56351C23.3656 7.33936 23.1681 7.07157 22.7733 6.536L20.78 3.832M4.22 3.832C4.44489 3.52693 4.55733 3.3744 4.69984 3.26439C4.82605 3.16695 4.96898 3.09425 5.12133 3.04998C5.29334 3 5.48074 3 5.85556 3H19.1444C19.5193 3 19.7067 3 19.8787 3.04998C20.031 3.09425 20.1739 3.16695 20.3002 3.26439C20.4427 3.3744 20.5551 3.52693 20.78 3.832M4.22 3.832L1.81778 7.09066C1.51436 7.50226 1.36264 7.70806 1.25491 7.9347C1.15932 8.1358 1.0896 8.34861 1.04747 8.56785C1 8.81492 1 9.07217 1 9.58666L1 24.84C1 26.2961 1 27.0242 1.27854 27.5804C1.52355 28.0696 1.9145 28.4673 2.39536 28.7166C2.94202 29 3.65764 29 5.08889 29L19.9111 29C21.3424 29 22.058 29 22.6046 28.7166C23.0855 28.4673 23.4765 28.0696 23.7215 27.5804C24 27.0242 24 26.2961 24 24.84V9.58667C24 9.07217 24 8.81492 23.9525 8.56785C23.9104 8.34861 23.8407 8.13581 23.7451 7.9347C23.6374 7.70806 23.4856 7.50227 23.1822 7.09067L20.78 3.832M17.6111 13.4C17.6111 14.7791 17.0726 16.1018 16.1141 17.077C15.1556 18.0521 13.8556 18.6 12.5 18.6C11.1444 18.6 9.84442 18.0521 8.8859 17.077C7.92738 16.1018 7.38889 14.7791 7.38889 13.4" stroke="#91A3AB" stroke-linecap="round" stroke-linejoin="round"/>
<circle id="Ellipse 12" cx="24.5" cy="5.5" r="5.5" fill="#8DC44A"/>
</g>
</svg>
