<svg width="66" height="20" viewBox="0 0 66 20" fill="none" xmlns="http://www.w3.org/2000/svg">
<circle cx="9" cy="9" r="8" stroke="#91A3AB"/>
<path d="M15 15L18 18" stroke="#91A3AB" stroke-linecap="round"/>
<path d="M34.308 14.5V3.692C32.208 3.692 30.08 3.692 27.98 3.692V14.5H29.338V4.966H32.978V14.5H34.308ZM39.0375 13.478C37.8475 13.478 37.3015 13.002 37.3015 11.518V9.18C37.3015 7.696 37.9315 7.402 39.0375 7.402C40.1435 7.402 40.7735 7.696 40.7735 9.18V11.518C40.7735 13.002 40.2695 13.478 39.0375 13.478ZM39.0375 14.64C41.2075 14.64 42.1035 13.744 42.1035 11.518V9.18C42.1035 7.01 40.9275 6.212 39.0375 6.212C37.1475 6.212 35.9715 7.01 35.9715 9.18V11.518C35.9715 13.744 36.8255 14.64 39.0375 14.64ZM44.9467 12.246V6.366H43.6167V14.5C44.0927 14.5 44.5687 14.5 45.0447 14.5L48.4467 8.578V14.5H49.7627V6.366C49.2867 6.366 48.7967 6.366 48.3207 6.366L44.9467 12.246ZM56.0313 11.728C56.0033 13.128 55.4293 13.366 54.2953 13.366C53.1613 13.366 52.5593 13.002 52.5593 11.518V9.194C52.5593 7.71 53.1753 7.444 54.2953 7.444C55.3593 7.444 55.9753 7.682 56.0313 8.97L57.2913 8.956C57.2073 6.856 56.1153 6.212 54.2953 6.212C52.4053 6.212 51.2293 7.024 51.2293 9.194V11.518C51.2293 13.744 52.1673 14.64 54.2953 14.64C56.4233 14.64 57.2633 13.884 57.2913 11.728H56.0313ZM64.9678 14.5L61.9578 10.356C63.3018 9.46 62.9518 7.318 64.4498 7.556L64.4778 6.338C61.5238 6.058 62.4338 9.656 60.4878 9.656H60.0398V6.366H58.7098V14.5H60.0398V10.86H60.7538L63.3858 14.5H64.9678Z" fill="#899BA4"/>
</svg>
