<svg width="35" height="35" viewBox="0 0 35 35" fill="none" xmlns="http://www.w3.org/2000/svg">
<g id="Linear / Call / Incoming Call ">
<path id="Vector" d="M25.667 9.33333L21.0003 14M21.0003 14V10.5M21.0003 14H24.5003" stroke="#91A3AB" stroke-linecap="round" stroke-linejoin="round"/>
<path id="Vector_2" d="M22.1343 22.0363L21.7718 21.6919H21.7718L22.1343 22.0363ZM22.7415 21.3969L23.1041 21.7413L22.7415 21.3969ZM25.9638 20.9498L25.7143 21.3831L25.9638 20.9498ZM28.5111 22.416L28.2617 22.8493L28.5111 22.416ZM29.2289 27.0112L29.5914 27.3556L29.2289 27.0112ZM27.3348 29.0053L26.9723 28.661L27.3348 29.0053ZM25.5684 29.9508L25.6175 30.4484L25.5684 29.9508ZM12.4205 23.9669L12.783 23.6226L12.4205 23.9669ZM6.00385 11.2879L5.50457 11.3147L5.50457 11.3147L6.00385 11.2879ZM14.6367 13.3375L14.9992 13.6818L14.6367 13.3375ZM14.8457 9.5908L15.2539 9.30214L14.8457 9.5908ZM13.1643 7.21282L12.7561 7.50148L12.7561 7.50148L13.1643 7.21282ZM9.01527 6.81152L9.3778 7.15587L9.01527 6.81152ZM6.92247 9.01485L6.55994 8.6705L6.92247 9.01485ZM16.7508 19.4079L17.1134 19.0635L16.7508 19.4079ZM22.4968 22.3806L23.1041 21.7413L22.379 21.0526L21.7718 21.6919L22.4968 22.3806ZM25.7143 21.3831L28.2617 22.8493L28.7605 21.9826L26.2132 20.5164L25.7143 21.3831ZM28.8664 26.6669L26.9723 28.661L27.6974 29.3497L29.5914 27.3556L28.8664 26.6669ZM25.5193 29.4532C23.4763 29.6549 18.3236 29.4558 12.783 23.6226L12.058 24.3113C17.8421 30.4008 23.3153 30.6756 25.6175 30.4484L25.5193 29.4532ZM12.783 23.6226C7.52916 18.0913 6.61726 13.3873 6.50313 11.2611L5.50457 11.3147C5.63084 13.6672 6.63274 18.5995 12.058 24.3113L12.783 23.6226ZM14.6168 14.0844L14.9992 13.6818L14.2742 12.9931L13.8917 13.3958L14.6168 14.0844ZM15.2539 9.30214L13.5726 6.92416L12.7561 7.50148L14.4374 9.87946L15.2539 9.30214ZM8.65274 6.46718L6.55994 8.6705L7.28499 9.35919L9.3778 7.15587L8.65274 6.46718ZM14.2543 13.7401C13.8917 13.3958 13.8913 13.3962 13.8908 13.3967C13.8906 13.3969 13.8902 13.3974 13.8898 13.3978C13.8892 13.3985 13.8885 13.3992 13.8878 13.3999C13.8864 13.4014 13.8849 13.4031 13.8834 13.4048C13.8802 13.4082 13.8768 13.4121 13.873 13.4165C13.8654 13.4251 13.8567 13.4356 13.847 13.4479C13.8275 13.4725 13.8041 13.5044 13.7788 13.544C13.728 13.6233 13.6697 13.7329 13.6192 13.8747C13.5172 14.1614 13.4531 14.5636 13.5303 15.0909C13.6833 16.1349 14.3851 17.6432 16.3883 19.7522L17.1134 19.0635C15.1766 17.0245 14.6301 15.6989 14.5198 14.946C14.4654 14.5749 14.5159 14.3379 14.5614 14.21C14.5846 14.1445 14.6083 14.103 14.6211 14.083C14.6275 14.0729 14.6313 14.0682 14.6311 14.0685C14.631 14.0686 14.6298 14.07 14.6275 14.0727C14.6264 14.074 14.6249 14.0757 14.6231 14.0776C14.6222 14.0786 14.6213 14.0797 14.6202 14.0808C14.6197 14.0814 14.6191 14.082 14.6186 14.0826C14.6183 14.0829 14.6178 14.0833 14.6177 14.0835C14.6173 14.084 14.6168 14.0844 14.2543 13.7401ZM16.3883 19.7522C18.3885 21.8581 19.8282 22.6068 20.8399 22.7711C21.3534 22.8545 21.7482 22.7854 22.0306 22.674C22.1698 22.6191 22.2768 22.5559 22.3538 22.5013C22.3923 22.474 22.4232 22.449 22.4468 22.4282C22.4587 22.4178 22.4687 22.4085 22.477 22.4005C22.4812 22.3965 22.4849 22.3928 22.4882 22.3895C22.4899 22.3878 22.4914 22.3862 22.4928 22.3848C22.4936 22.384 22.4942 22.3833 22.4949 22.3826C22.4952 22.3823 22.4957 22.3818 22.4959 22.3816C22.4964 22.3811 22.4968 22.3806 22.1343 22.0363C21.7718 21.6919 21.7722 21.6915 21.7727 21.691C21.7728 21.6908 21.7733 21.6904 21.7735 21.6901C21.7741 21.6895 21.7747 21.6889 21.7752 21.6883C21.7763 21.6872 21.7773 21.6862 21.7782 21.6852C21.7801 21.6834 21.7817 21.6818 21.783 21.6805C21.7856 21.678 21.7871 21.6767 21.7874 21.6764C21.788 21.6759 21.784 21.6794 21.7753 21.6856C21.758 21.6979 21.7214 21.721 21.6637 21.7438C21.5524 21.7877 21.34 21.8393 21.0002 21.7841C20.3052 21.6712 19.0531 21.1057 17.1134 19.0635L16.3883 19.7522ZM13.5726 6.92416C12.3882 5.24903 10.0532 4.99276 8.65274 6.46718L9.3778 7.15587C10.3094 6.17511 11.9059 6.29897 12.7561 7.50148L13.5726 6.92416ZM6.50313 11.2611C6.46535 10.5573 6.77499 9.89613 7.28499 9.35919L6.55994 8.6705C5.91362 9.35095 5.44839 10.2679 5.50457 11.3147L6.50313 11.2611ZM26.9723 28.661C26.5455 29.1104 26.052 29.4006 25.5193 29.4532L25.6175 30.4484C26.4591 30.3653 27.161 29.9144 27.6974 29.3497L26.9723 28.661ZM14.9992 13.6818C16.1153 12.5068 16.2054 10.6478 15.2539 9.30214L14.4374 9.87946C15.1298 10.8587 15.0422 12.1845 14.2742 12.9931L14.9992 13.6818ZM28.2617 22.8493C29.6268 23.6351 29.9142 25.5638 28.8664 26.6669L29.5914 27.3556C31.1007 25.7666 30.6671 23.08 28.7605 21.9826L28.2617 22.8493ZM23.1041 21.7413C23.7808 21.0288 24.8355 20.8772 25.7143 21.3831L26.2132 20.5164C24.9438 19.7858 23.3813 19.9974 22.379 21.0526L23.1041 21.7413Z" fill="#91A3AB"/>
</g>
</svg>
