<svg width="164" height="40" viewBox="0 0 164 40" fill="none" xmlns="http://www.w3.org/2000/svg">
<g clip-path="url(#clip0_186_59)">
<path fill-rule="evenodd" clip-rule="evenodd" d="M8.48668 17.5187C17.9766 14.1034 27.4665 10.688 36.9453 7.27273C39.5617 6.33325 38.8521 6.30009 41.3355 7.538C49.628 11.7049 51.4795 12.6112 59.772 16.7671C60.8363 17.3087 61.2909 17.3418 60.5813 19.1213C60.0714 20.3703 59.1401 20.8566 57.7432 20.1161C49.8276 16.4686 48.9518 15.8386 41.0251 12.1802C38.4419 10.9975 39.096 10.8538 36.4575 11.8154L12.1008 20.6466C10.9811 21.0555 9.65074 21.6303 9.31815 22.824C8.16517 27.0019 7.0122 29.1904 5.88139 33.3904C5.55989 34.5841 6.25832 35.5568 7.45565 35.5568C14.6063 35.5568 6.91242 35.5568 14.0742 35.5568C15.6595 35.7226 14.9389 36.43 14.5842 37.911C14.2183 39.4805 13.4201 39.6353 12.2228 39.6353H1.69076C0.50452 39.6353 -0.205005 38.6626 0.116498 37.4689C2.07878 30.373 3.78607 26.803 5.71509 19.685C6.0366 18.4913 7.36696 17.9276 8.48668 17.5187Z" fill="white"/>
<path d="M29.384 38.6958L33.5192 23.2772C33.5968 22.9898 33.7409 22.7577 33.9848 22.5698C34.2176 22.3819 34.4726 22.2935 34.7498 22.2935H38.3085C38.5857 22.2935 38.7963 22.3819 38.9293 22.5698C39.0624 22.7577 39.0956 22.9898 39.018 23.2772L38.752 24.2719C40.9803 22.7466 43.1311 21.9729 45.1931 21.9729C47.2552 21.9729 48.7629 22.6029 49.7163 23.8519C50.6808 25.1009 50.8139 27.0241 50.1154 29.5993L47.6765 38.6958C47.5988 38.9721 47.4436 39.2042 47.2108 39.3921C46.978 39.569 46.723 39.6684 46.4348 39.6684H42.8872C42.61 39.6684 42.4104 39.569 42.2663 39.3921C42.1333 39.2042 42.1111 38.9721 42.1776 38.6958L44.6166 29.5993C45.2929 27.0793 44.6166 25.8082 42.5989 25.8082C41.2685 25.8082 39.6499 26.5709 37.732 28.0741L34.8828 38.6958C34.8052 38.9721 34.65 39.2042 34.4172 39.3921C34.1844 39.569 33.9294 39.6684 33.6522 39.6684H30.0935C29.8164 39.6684 29.6057 39.569 29.4727 39.3921C29.3397 39.2042 29.3064 38.9721 29.384 38.6958Z" fill="white"/>
<path d="M53.7186 27.1014C54.6388 23.6861 57.8538 21.9729 63.3748 21.9729C69.184 21.9729 71.6785 23.4982 70.8692 26.5267C70.7916 26.803 70.6363 27.0351 70.4146 27.2119C70.1818 27.3998 69.9268 27.4883 69.6386 27.4883H67.2661C66.5122 27.4883 65.9579 27.1677 65.6032 26.5377C65.2484 25.8967 64.3171 25.5761 62.7872 25.5761C60.6919 25.5761 59.5057 26.0846 59.2285 27.1014C59.1066 27.5767 59.417 27.9635 60.1487 28.2841C60.8915 28.6046 61.8116 28.8809 62.9313 29.113C64.0511 29.3562 65.1486 29.6546 66.224 30.0304C67.2994 30.3951 68.1419 30.992 68.7406 31.7878C69.3503 32.6057 69.4834 33.6226 69.1508 34.8605C68.2417 38.2758 64.8715 39.989 59.04 39.989C53.2086 39.989 50.7031 38.4747 51.5124 35.4463C51.59 35.1589 51.7452 34.9268 51.9781 34.7389C52.2109 34.562 52.4769 34.4626 52.7541 34.4626H55.1266C55.8915 34.4626 56.4458 34.7831 56.7895 35.4242C57.1443 36.0652 58.0755 36.3858 59.6054 36.3858C62.0334 36.3858 63.3859 35.8773 63.663 34.8605C63.785 34.3852 63.4746 33.9873 62.7429 33.6778C62.0001 33.3573 61.0799 33.081 59.9491 32.8268C58.8405 32.5725 57.7319 32.2741 56.6676 31.9094C55.5922 31.5446 54.7496 30.9588 54.1399 30.1409C53.5301 29.323 53.3971 28.3062 53.7186 27.1014Z" fill="white"/>
<path d="M80.0375 36.22L82.2548 36.0321H82.8424C83.1306 36.0321 83.3523 36.1315 83.4854 36.3084C83.6184 36.4852 83.6517 36.7173 83.5741 37.0047L83.1195 38.6958C83.053 38.9279 82.9089 39.1379 82.6761 39.3258C82.4433 39.5137 82.1772 39.6242 81.8779 39.6684C80.736 39.8784 79.2947 39.989 77.5653 39.989C72.9977 39.989 71.3569 37.6016 72.6319 32.8489L76.6451 17.9166C76.7116 17.6292 76.8779 17.3971 77.1107 17.2092C77.3435 17.0323 77.5985 16.9329 77.8757 16.9329H81.4344C81.7116 16.9329 81.9222 17.0323 82.0552 17.2092C82.1883 17.3971 82.2215 17.6292 82.1439 17.9166L80.7249 23.2108H85.1594C85.4366 23.2108 85.6472 23.2993 85.7802 23.4872C85.9133 23.664 85.9465 23.8961 85.8689 24.1835L85.359 26.0625C85.2814 26.3498 85.1372 26.5819 84.9044 26.7588C84.6716 26.9356 84.4055 27.0351 84.1284 27.0351H79.6938L78.1418 32.8489C77.8535 33.921 77.8868 34.761 78.2305 35.3468C78.5852 35.9326 79.1839 36.22 80.0375 36.22Z" fill="white"/>
<path d="M86.7338 38.5189C85.5919 37.5463 85.2593 36.1758 85.736 34.3963C86.2127 32.6278 87.277 31.2683 88.9399 30.3067C90.6029 29.3672 92.5319 28.892 94.7492 28.892H100.015C100.348 27.6541 100.315 26.7919 99.9265 26.3056C99.5385 25.8193 98.6959 25.5761 97.3988 25.5761C96.1017 25.5761 95.1039 25.8967 94.4055 26.5377C93.7071 27.1677 92.9754 27.4883 92.2104 27.4883H89.849C89.5608 27.4883 89.3501 27.3998 89.206 27.2119C89.073 27.0351 89.0508 26.803 89.1173 26.5267C89.9377 23.4982 93.2303 21.9729 99.0063 21.9729C101.534 21.9729 103.408 22.5366 104.627 23.664C105.847 24.7914 106.146 26.5267 105.514 28.892L102.887 38.6958C102.809 38.9832 102.654 39.2153 102.421 39.3921C102.199 39.569 101.944 39.6684 101.656 39.6684H98.585C98.2968 39.6684 98.0862 39.569 97.9642 39.3921C97.8312 39.2042 97.7979 38.9721 97.8755 38.6958L98.0086 38.2095C96.013 39.4032 93.9177 40 91.7337 39.989C89.5497 39.989 87.8867 39.5026 86.7338 38.5189ZM94.1727 32.4841C93.4299 32.4841 92.7869 32.661 92.2658 33.0257C91.7448 33.3794 91.4011 33.8436 91.2459 34.4184C91.0907 34.9931 91.1905 35.4573 91.5341 35.8331C91.8778 36.1979 92.4654 36.3858 93.2747 36.3858C94.9155 36.3858 96.6117 35.9105 98.3855 34.9599L99.0507 32.4841H94.1727Z" fill="white"/>
<path d="M106.789 38.6958L112.365 17.9166C112.443 17.6292 112.598 17.3971 112.831 17.2092C113.075 17.0323 113.319 16.9329 113.596 16.9329H117.154C117.432 16.9329 117.642 17.0323 117.775 17.2092C117.919 17.3971 117.942 17.6292 117.864 17.9166L112.299 38.6958C112.221 38.9721 112.066 39.2042 111.833 39.3921C111.6 39.5689 111.345 39.6684 111.068 39.6684H107.498C107.232 39.6684 107.022 39.5689 106.889 39.3921C106.744 39.2042 106.722 38.9721 106.789 38.6958Z" fill="white"/>
<path d="M116.202 38.6958L121.778 17.9166C121.856 17.6292 122.011 17.3971 122.244 17.2092C122.477 17.0323 122.732 16.9329 123.009 16.9329H126.568C126.845 16.9329 127.055 17.0323 127.188 17.2092C127.321 17.3971 127.355 17.6292 127.277 17.9166L121.701 38.6958C121.634 38.9721 121.479 39.2042 121.246 39.3921C121.013 39.5689 120.747 39.6684 120.47 39.6684H116.911C116.634 39.6684 116.435 39.5689 116.302 39.3921C116.158 39.2042 116.124 38.9721 116.202 38.6958Z" fill="white"/>
<path d="M127.354 37.6679C126.135 36.1315 125.913 33.8989 126.689 31.003C127.476 28.1072 128.884 25.8746 130.946 24.3161C133.008 22.7577 135.503 21.9729 138.418 21.9729C141.334 21.9729 143.396 22.7356 144.627 24.2498C145.846 25.764 146.09 27.9414 145.325 30.7709L145.081 31.6773C145.004 31.9646 144.848 32.1967 144.616 32.3846C144.383 32.5615 144.117 32.661 143.828 32.661H131.866C131.611 33.9541 131.733 34.9047 132.221 35.4905C132.709 36.0873 133.651 36.3858 135.059 36.3858C136.467 36.3858 137.52 36.0652 138.208 35.4352C138.895 34.8052 139.627 34.4736 140.392 34.4626H142.764C143.041 34.4626 143.263 34.562 143.396 34.7389C143.529 34.9268 143.551 35.1589 143.485 35.4463C142.664 38.4858 139.361 40 133.574 39.989C130.647 39.989 128.574 39.2153 127.354 37.6679ZM132.72 29.312H140.115C140.68 26.8251 139.793 25.5761 137.443 25.5761C135.092 25.5761 133.518 26.8251 132.72 29.312Z" fill="white"/>
<path d="M161.489 26.3167L159.073 26.2283C157.642 26.2283 156.057 27.0019 154.339 28.5714L151.623 38.6958C151.545 38.9832 151.39 39.2153 151.157 39.3921C150.924 39.569 150.669 39.6684 150.392 39.6684H146.833C146.545 39.6684 146.334 39.569 146.201 39.3921C146.068 39.2153 146.046 38.9832 146.124 38.6958L150.259 23.2772C150.337 22.9898 150.492 22.7577 150.725 22.5698C150.957 22.3819 151.212 22.2935 151.49 22.2935H155.048C155.336 22.2935 155.547 22.3819 155.68 22.5698C155.802 22.7577 155.835 22.9898 155.758 23.2772L155.492 24.2719C156.778 23.4982 157.975 22.9124 159.084 22.5366C160.181 22.1608 161.545 21.9729 163.163 21.9729C163.452 21.9729 163.662 22.0724 163.795 22.2603C163.928 22.4371 163.962 22.6693 163.895 22.9456L163.241 25.344C163.163 25.6314 163.019 25.8635 162.786 26.0514C162.543 26.2283 162.288 26.3167 161.999 26.3167H161.489Z" fill="white"/>
<path d="M19.0183 38.8284L24.3952 19.2871C24.4728 18.9997 24.628 18.7676 24.8497 18.5908C25.0936 18.4139 25.3597 18.3808 25.6258 18.2813L29.5614 16.9108C29.8275 16.8223 30.0603 17.0102 30.1822 17.1981C30.3153 17.375 30.3485 17.6071 30.2709 17.8834L24.5171 38.8284C24.4395 39.1047 24.2843 39.3479 24.0515 39.5247C23.8187 39.7016 23.5637 39.79 23.2865 39.79H19.7278C19.4396 39.79 19.2289 39.7016 19.0959 39.5247C18.974 39.3479 18.9407 39.1158 19.0183 38.8284Z" fill="#6BA229"/>
<path d="M27.5217 6.99641L29.2955 0.972644C29.3842 0.685272 29.5283 0.442111 29.7611 0.265267C29.9939 0.0884222 30.2489 0 30.5261 0H34.0959C34.373 0 34.5837 0.099475 34.7167 0.276319C34.8387 0.464217 34.883 0.696325 34.8054 0.972644L33.4085 5.55955C33.3309 5.84692 33.1757 6.07903 32.9429 6.25587C32.7101 6.43272 32.4773 6.49903 32.2112 6.58745L28.2423 7.96905C27.9652 8.05747 27.7434 7.86958 27.6104 7.69273C27.4774 7.51589 27.4441 7.28378 27.5217 6.99641Z" fill="#6BA229"/>
</g>
<defs>
<clipPath id="clip0_186_59">
<rect width="164" height="40" fill="white"/>
</clipPath>
</defs>
</svg>
